Coordinates
version=1
nRows=17
nColumns=24
inDegrees=yes

Units are S.I. units (second, meters, Newtons, ...)
Angles are in degrees.

endheader
time	pelvis_tilt	pelvis_list	pelvis_rotation	pelvis_tx	pelvis_ty	pelvis_tz	hip_flexion_r	hip_adduction_r	hip_rotation_r	knee_angle_r	ankle_angle_r	subtalar_angle_r	mtp_angle_r	hip_flexion_l	hip_adduction_l	hip_rotation_l	knee_angle_l	ankle_angle_l	subtalar_angle_l	mtp_angle_l	lumbar_extension	lumbar_bending	lumbar_rotation
      0.88366667	     -1.01486787	     -2.20611788	      3.82126230	     -0.32199916	      0.98395029	      0.34658221	     14.06553920	      7.74731112	      0.18962923	    -23.34567190	     11.60987768	    -14.35595964	     -6.60374955	     18.22756285	     -1.93433948	      1.51469277	    -71.87871053	     -3.12259327	    -12.38075207	      0.98699160	      3.89123252	      5.44279351	      2.05994863
      0.88783333	     -0.91297522	     -2.15403706	      3.70185208	     -0.31698187	      0.98495752	      0.34689637	     13.37885304	      7.72452829	      0.21754635	    -22.86768758	     11.65963078	    -14.09434638	     -6.65406856	     18.77420485	     -1.86869027	      1.45897075	    -71.72710031	     -2.55627259	    -12.55711962	      0.95312161	      3.72820251	      5.41732811	      2.19860622
      0.89200000	     -0.84815413	     -2.09286725	      3.57231105	     -0.31197973	      0.98586364	      0.34720544	     12.74731961	      7.68159144	      0.22129696	    -22.42000119	     11.72535228	    -13.80113479	     -6.70330145	     19.34881518	     -1.79241873	      1.39475730	    -71.53155886	     -1.99662230	    -12.70847889	      0.90722357	      3.61091423	      5.37522584	      2.39365466
      0.89616667	     -0.76197325	     -2.01701493	      3.43678369	     -0.30698045	      0.98679177	      0.34750326	     12.09133448	      7.61952295	      0.22152198	    -21.96939708	     11.78807623	    -13.49509590	     -6.74381785	     19.88029553	     -1.70159406	      1.32419184	    -71.27585277	     -1.47570945	    -12.86601875	      0.85432070	      3.46422845	      5.31915207	      2.58229475
      0.90033333	     -0.68106564	     -1.95030871	      3.29911433	     -0.30199156	      0.98767390	      0.34780073	     11.44296880	      7.56408677	      0.21769271	    -21.51740026	     11.84727166	    -13.17398441	     -6.77571708	     20.40629068	     -1.62257677	      1.25722474	    -70.97599474	     -0.97629048	    -13.00384353	      0.79557081	      3.32292176	      5.27617534	      2.77539036
      0.90450000	     -0.61783798	     -1.88465426	      3.15206205	     -0.29702336	      0.98847935	      0.34809694	     10.82277894	      7.50559741	      0.21184766	    -21.07870719	     11.90663530	    -12.84074561	     -6.79921726	     20.94198169	     -1.54614195	      1.18426104	    -70.63889410	     -0.50495777	    -13.12257841	      0.73040190	      3.19996860	      5.23378480	      2.97262833
      0.90866667	     -0.54131078	     -1.81587152	      3.00282672	     -0.29206684	      0.98927494	      0.34838878	     10.19025691	      7.44059302	      0.20143959	    -20.64173614	     11.96603751	    -12.50132208	     -6.81375493	     21.44705464	     -1.47012813	      1.10939003	    -70.25062640	     -0.06288143	    -13.22664603	      0.65930236	      3.05987406	      5.18595041	      3.17273624
      0.91283333	     -0.46978978	     -1.72736134	      2.84843634	     -0.28711701	      0.99003985	      0.34865546	      9.57815121	      7.34385436	      0.15672113	    -20.23625684	     12.05361318	    -12.10174612	     -6.82632393	     21.93729484	     -1.36653417	      1.03439425	    -69.80872948	      0.35742317	    -13.33106326	      0.51422676	      2.92408698	      5.11854127	      3.41335264
      0.91700000	     -0.40711888	     -1.67571475	      2.68645425	     -0.28217702	      0.99074121	      0.34896774	      8.95789517	      7.29891733	      0.18064853	    -19.78210433	     12.07703130	    -11.78433046	     -6.82345986	     22.43325164	     -1.31824119	      0.95794050	    -69.33922246	      0.73226356	    -13.37223963	      0.44067708	      2.79846446	      5.09136257	      3.57711683
      0.92116667	     -0.34447158	     -1.59878993	      2.52057377	     -0.27724899	      0.99140574	      0.34926159	      8.35394243	      7.21760040	      0.17571910	    -19.36447129	     12.13422039	    -11.42702591	     -6.81102507	     22.90831772	     -1.23903610	      0.87886850	    -68.81793837	      1.09226812	    -13.40455473	      0.35997404	      2.66934889	      5.03532596	      3.79053931
      0.92533333	     -0.28969634	     -1.52180468	      2.35049276	     -0.27232626	      0.99203395	      0.34954861	      7.76263418	      7.13251027	      0.16718932	    -18.95119826	     12.18842735	    -11.05855768	     -6.78949531	     23.37550902	     -1.16142888	      0.79778592	    -68.25075920	      1.42630332	    -13.42498815	      0.27454317	      2.54938462	      4.97760815	      4.00504160
      0.92950000	     -0.23759675	     -1.46033493	      2.15594921	     -0.26741790	      0.99260058	      0.34988045	      7.17873360	      7.06945958	      0.20373077	    -18.54314495	     12.22430750	    -10.73994494	     -6.76898319	     23.83169773	     -1.11819838	      0.69211062	    -67.65080252	      1.76579917	    -13.43384954	      0.21799788	      2.43666885	      4.93850233	      4.16697834
      0.93366667	     -0.17129650	     -1.38810392	      2.00186016	     -0.26250568	      0.99316145	      0.35013624	      6.57832133	      6.98016678	      0.15814443	    -18.12888798	     12.29516797	    -10.33891832	     -6.72713788	     24.25817329	     -1.03807100	      0.64304014	    -67.00229625	      2.04659785	    -13.37926567	      0.11873443	      2.30013711	      4.88177234	      4.43668955
      0.93783333	     -0.14479875	     -1.32936278	      1.79670259	     -0.25761551	      0.99361861	      0.35047756	      6.02971023	      6.91773339	      0.21814868	    -17.73059363	     12.32283687	    -10.03230332	     -6.69813506	     24.71043656	     -1.00329666	      0.53606581	    -66.31953123	      2.34216894	    -13.34164421	      0.06410957	      2.21868464	      4.84904593	      4.58560083
      0.94200000	     -0.11361755	     -1.27670839	      1.61442222	     -0.25273095	      0.99403107	      0.35078361	      5.47657567	      6.85431280	      0.23373887	    -17.32803532	     12.36819631	     -9.69536839	     -6.66121048	     25.14720119	     -0.96412752	      0.46432343	    -65.60327818	      2.61951677	    -13.24585640	      0.00286724	      2.12249523	      4.81459907	      4.80081387
      0.94616667	     -0.07772822	     -1.22669084	      1.43191204	     -0.24784779	      0.99441333	      0.35108940	      4.91761451	      6.79333555	      0.25814385	    -16.92334016	     12.41771545	     -9.37790189	     -6.62319338	     25.56180910	     -0.92853426	      0.39627391	    -64.84582858	      2.87341478	    -13.15196311	     -0.05418713	      2.02295570	      4.78257765	      4.99788578
      0.95033333	     -0.02790504	     -1.17135810	      1.27152043	     -0.24295939	      0.99477163	      0.35135931	      4.34899439	      6.71684340	      0.21569379	    -16.52682552	     12.49040859	     -8.99644635	     -6.55502156	     25.94493835	     -0.87845619	      0.35146777	    -64.04817705	      3.10993441	    -13.03523171	     -0.15242677	      1.90600616	      4.73807884	      5.26877226
